<svg xmlns="http://www.w3.org/2000/svg" width="1186" height="534" fill="none" viewBox="0 0 1186 534">
  <path fill="#fff" fill-opacity=".19" d="M533 269.383L986.826 150l48.752 185.327L581.752 454.71z"/>
  <path fill="#fff" fill-opacity=".34" d="M848 301.643L1146.958 223l38.66 146.963-298.958 78.643z"/>
  <path stroke="#CBCF0F" stroke-opacity=".53" stroke-width="8" d="M713.035 507.471l-.044.117-.091-.085c-.381-.357-.879-.879-1.701-1.747l-34.518-36.394c-.823-.868-1.318-1.392-1.655-1.791l-.079-.096c.035-.012.075-.024.119-.037.5-.152 1.2-.321 2.363-.6l48.778-11.696c1.163-.279 1.864-.446 2.378-.537l.123-.021-.027.121c-.119.509-.323 1.201-.663 2.347l-14.259 48.091c-.34 1.146-.547 1.837-.724 2.328z"/>
  <path stroke="#fff" stroke-opacity=".69" stroke-width="8" d="M689 114.619l30.641 17.69v35.382L689 185.381l-30.641-17.69v-35.382L689 114.619z"/>
  <path stroke="#EDA211" stroke-width="8" d="M1050.07 133.399l51.01 13.669-13.67 51.011-51.01-13.668 13.67-51.012z"/>
</svg>
