<svg xmlns="http://www.w3.org/2000/svg" width="1440" height="754" fill="none" viewBox="0 0 1440 754">
  <path fill="#4B00C6" d="M-155-112.886l1569.871-195.115 107.637 866.031L-47.364 753.145z"/>
  <path fill="#fff" fill-opacity=".19" d="M713 279.383L1166.826 160l48.752 185.327L761.752 464.71z"/>
  <path fill="#fff" fill-opacity=".34" d="M1028 311.643L1326.958 233l38.66 146.963-298.958 78.643z"/>
  <path stroke="#CBCF0F" stroke-opacity=".53" stroke-width="8" d="M893.035 517.471l-.044.117-.091-.085c-.381-.357-.879-.879-1.701-1.747l-34.518-36.394c-.823-.868-1.318-1.392-1.655-1.791l-.079-.096c.035-.012.075-.024.119-.037.5-.152 1.2-.321 2.363-.6l48.778-11.696c1.163-.279 1.864-.446 2.378-.537l.123-.021-.027.121c-.119.509-.323 1.201-.663 2.347l-14.259 48.091c-.34 1.146-.547 1.837-.724 2.328z"/>
  <path stroke="#fff" stroke-opacity=".69" stroke-width="8" d="M869 124.619l30.641 17.69v35.382L869 195.381l-30.641-17.69v-35.382L869 124.619z"/>
  <path stroke="#EDA211" stroke-width="8" d="M1230.07 143.399l51.01 13.669-13.67 51.011-51.01-13.668 13.67-51.012z"/>
</svg>
