<svg xmlns="http://www.w3.org/2000/svg" width="495" height="400" fill="none" viewBox="0 0 495 400">
  <path fill="#fff" fill-opacity=".19" d="M0 145.402L381.597 45.02l45.725 173.82L45.725 319.222z"/>
  <path fill="#fff" fill-opacity=".34" d="M178.232 183.497l280.398-73.76 36.26 137.838-280.398 73.76z"/>
  <path stroke="#CBCF0F" stroke-opacity=".53" stroke-width="8" d="M114.064 328.817l-13.037 43.967c-.34 1.147-.546 1.837-.724 2.329l-.043.116-.092-.084c-.38-.357-.878-.879-1.7-1.747l-31.559-33.274c-.823-.867-1.318-1.392-1.654-1.791a5.928 5.928 0 01-.08-.096l.12-.037c.5-.151 1.2-.321 2.363-.6l44.595-10.693c1.162-.279 1.864-.445 2.378-.537l.123-.021-.027.122c-.119.508-.323 1.2-.663 2.346z"/>
  <path stroke="#fff" stroke-opacity=".69" stroke-width="8" d="M77.875 7.433l28.49 16.448V56.78l-28.49 16.45-28.49-16.45V23.881l28.49-16.448z"/>
  <path stroke="#EDA211" stroke-width="8" d="M416.701 25.064l47.365 12.691-12.691 47.365L404.01 72.43l12.691-47.365z"/>
</svg>
