<svg width="130" height="36" viewBox="0 0 130 36" fill="none" xmlns="http://www.w3.org/2000/svg">
<path d="M38.336 10.156C38.336 9.72667 38.4293 9.35333 38.616 9.036C38.8213 8.7 39.1107 8.532 39.484 8.532H51.328C51.7013 8.532 51.9813 8.7 52.168 9.036C52.3733 9.35333 52.476 9.72667 52.476 10.156C52.476 10.604 52.3733 10.996 52.168 11.332C51.9627 11.6493 51.6827 11.808 51.328 11.808H47.24V27.852C47.24 28.2067 47.0533 28.4867 46.68 28.692C46.3253 28.8973 45.9053 29 45.42 29C44.916 29 44.4867 28.8973 44.132 28.692C43.7773 28.4867 43.6 28.2067 43.6 27.852V11.808H39.484C39.1293 11.808 38.8493 11.6493 38.644 11.332C38.4387 11.0147 38.336 10.6227 38.336 10.156ZM51.146 23.512V21.132C51.146 19.6013 51.7433 18.2853 52.938 17.184C54.1327 16.0827 55.5793 15.532 57.278 15.532C58.8647 15.532 60.218 16.036 61.338 17.044C62.4767 18.0333 63.046 19.284 63.046 20.796C63.046 21.356 62.9713 21.8227 62.822 22.196C62.6913 22.5507 62.4767 22.8027 62.178 22.952C61.898 23.1013 61.6367 23.1947 61.394 23.232C61.1513 23.2693 60.834 23.288 60.442 23.288H54.758V23.708C54.758 24.5107 55.0567 25.164 55.654 25.668C56.2513 26.1533 57.0447 26.396 58.034 26.396C58.7433 26.396 59.4433 26.2187 60.134 25.864C60.8247 25.5093 61.2727 25.332 61.478 25.332C61.87 25.332 62.1967 25.5187 62.458 25.892C62.7193 26.2467 62.85 26.592 62.85 26.928C62.85 27.4507 62.374 27.9733 61.422 28.496C60.4887 29 59.322 29.252 57.922 29.252C55.9247 29.252 54.2913 28.7293 53.022 27.684C51.7713 26.62 51.146 25.2293 51.146 23.512ZM54.758 21.16H58.846C59.1447 21.16 59.35 21.1133 59.462 21.02C59.5927 20.908 59.658 20.7027 59.658 20.404C59.658 19.7507 59.4153 19.2187 58.93 18.808C58.4633 18.3973 57.8847 18.192 57.194 18.192C56.5407 18.192 55.9713 18.3973 55.486 18.808C55.0007 19.2 54.758 19.7227 54.758 20.376V21.16ZM64.4565 26.844C64.4565 26.508 64.5778 26.1627 64.8205 25.808C65.0632 25.4347 65.3432 25.248 65.6605 25.248C65.8658 25.248 66.1178 25.3507 66.4165 25.556C66.7338 25.7613 67.1445 25.976 67.6485 26.2C68.1525 26.4053 68.7498 26.508 69.4405 26.508C70.8032 26.508 71.4845 26.1067 71.4845 25.304C71.4845 24.856 71.2512 24.5013 70.7845 24.24C70.3365 23.9787 69.7858 23.764 69.1325 23.596C68.4978 23.428 67.8538 23.232 67.2005 23.008C66.5472 22.7653 65.9872 22.3733 65.5205 21.832C65.0725 21.272 64.8485 20.5627 64.8485 19.704C64.8485 18.5653 65.2498 17.5853 66.0525 16.764C66.8552 15.9427 68.1245 15.532 69.8605 15.532C71.0178 15.532 72.0445 15.7093 72.9405 16.064C73.8552 16.4187 74.3125 16.848 74.3125 17.352C74.3125 17.6693 74.1818 18.0427 73.9205 18.472C73.6778 18.8827 73.3698 19.088 72.9965 19.088C72.8472 19.088 72.4365 18.9573 71.7645 18.696C71.1112 18.416 70.4952 18.276 69.9165 18.276C69.2818 18.276 68.7965 18.4067 68.4605 18.668C68.1245 18.9293 67.9565 19.2187 67.9565 19.536C67.9565 19.8533 68.1245 20.1147 68.4605 20.32C68.7965 20.5253 69.2072 20.684 69.6925 20.796C70.1965 20.908 70.7378 21.0667 71.3165 21.272C71.8952 21.4587 72.4272 21.6827 72.9125 21.944C73.4165 22.2053 73.8365 22.616 74.1725 23.176C74.5085 23.7173 74.6765 24.38 74.6765 25.164C74.6765 26.4333 74.2192 27.432 73.3045 28.16C72.4085 28.888 71.1485 29.252 69.5245 29.252C68.1245 29.252 66.9298 29.0093 65.9405 28.524C64.9512 28.0387 64.4565 27.4787 64.4565 26.844ZM76.7783 24.464V10.884C76.7783 10.5667 76.9649 10.3053 77.3383 10.1C77.7116 9.876 78.1223 9.764 78.5703 9.764C79.0556 9.764 79.4756 9.876 79.8303 10.1C80.2036 10.3053 80.3903 10.5667 80.3903 10.884V15.7H83.6943C83.9743 15.7 84.1983 15.8307 84.3663 16.092C84.5343 16.3533 84.6183 16.6613 84.6183 17.016C84.6183 17.3707 84.5343 17.6787 84.3663 17.94C84.1983 18.2013 83.9743 18.332 83.6943 18.332H80.3903V24.464C80.3903 25.0053 80.5023 25.388 80.7263 25.612C80.9689 25.836 81.3796 25.948 81.9583 25.948H83.0503C83.5356 25.948 83.9089 26.0973 84.1703 26.396C84.4503 26.6947 84.5903 27.0493 84.5903 27.46C84.5903 27.8893 84.4503 28.2533 84.1703 28.552C83.9089 28.8507 83.5356 29 83.0503 29H81.9583C78.5049 29 76.7783 27.488 76.7783 24.464ZM86.3173 10.968C86.3173 10.4827 86.5039 10.072 86.8773 9.736C87.2693 9.38133 87.7453 9.204 88.3053 9.204C88.8466 9.204 89.3039 9.38133 89.6773 9.736C90.0693 10.072 90.2653 10.4827 90.2653 10.968C90.2653 11.4347 90.0693 11.8453 89.6773 12.2C89.3039 12.5547 88.8466 12.732 88.3053 12.732C87.7453 12.732 87.2693 12.5547 86.8773 12.2C86.5039 11.8453 86.3173 11.4347 86.3173 10.968ZM86.5133 27.852V16.82C86.5133 16.484 86.6813 16.2133 87.0173 16.008C87.3533 15.8027 87.7826 15.7 88.3053 15.7C88.8279 15.7 89.2573 15.8027 89.5933 16.008C89.9479 16.2133 90.1253 16.484 90.1253 16.82V27.852C90.1253 28.132 89.9386 28.3933 89.5653 28.636C89.2106 28.8787 88.7906 29 88.3053 29C87.8013 29 87.3719 28.888 87.0173 28.664C86.6813 28.4213 86.5133 28.1507 86.5133 27.852ZM92.9117 27.852V16.82C92.9117 16.484 93.0704 16.2133 93.3877 16.008C93.7237 15.8027 94.1624 15.7 94.7037 15.7C95.1517 15.7 95.5251 15.8027 95.8237 16.008C96.1411 16.2133 96.2997 16.484 96.2997 16.82V17.66C96.5984 17.0627 97.0744 16.5587 97.7277 16.148C98.3997 15.7373 99.1744 15.532 100.052 15.532C101.34 15.532 102.46 16.092 103.412 17.212C104.382 18.332 104.868 19.6667 104.868 21.216V27.852C104.868 28.2067 104.681 28.4867 104.308 28.692C103.953 28.8973 103.533 29 103.048 29C102.581 29 102.161 28.8973 101.788 28.692C101.433 28.4867 101.256 28.2067 101.256 27.852V21.216C101.256 20.5627 101.013 19.984 100.528 19.48C100.042 18.9573 99.4731 18.696 98.8197 18.696C98.2037 18.696 97.6624 18.9293 97.1957 19.396C96.7477 19.8627 96.5237 20.4693 96.5237 21.216V27.852C96.5237 28.132 96.3371 28.3933 95.9637 28.636C95.6091 28.8787 95.1891 29 94.7037 29C94.1997 29 93.7704 28.888 93.4157 28.664C93.0797 28.4213 92.9117 28.1507 92.9117 27.852ZM106.145 33.648C106.145 32.64 106.453 32.136 107.069 32.136C107.946 32.136 108.805 31.8187 109.645 31.184C110.503 30.5493 110.979 29.4947 111.073 28.02L106.257 17.716C106.182 17.5293 106.145 17.3707 106.145 17.24C106.145 16.792 106.415 16.3907 106.957 16.036C107.517 15.6813 108.049 15.504 108.553 15.504C109.113 15.504 109.458 15.7093 109.589 16.12L112.949 24.492L115.665 16.12C115.795 15.7093 116.113 15.504 116.617 15.504C117.102 15.504 117.634 15.6907 118.213 16.064C118.791 16.4187 119.081 16.8293 119.081 17.296C119.081 17.4453 119.053 17.5853 118.997 17.716L114.909 28.16L114.433 29.392C114.209 30.0267 114.041 30.4653 113.929 30.708C113.835 30.9507 113.658 31.324 113.397 31.828C113.154 32.3507 112.93 32.724 112.725 32.948C112.538 33.1907 112.267 33.48 111.913 33.816C111.558 34.1707 111.194 34.4227 110.821 34.572C110.466 34.74 110.027 34.88 109.505 34.992C108.982 35.1227 108.413 35.188 107.797 35.188C107.255 35.188 106.845 35.0853 106.565 34.88C106.285 34.6747 106.145 34.264 106.145 33.648Z" fill="#384461"/>
<path d="M32 19C32 10.1634 24.8366 3 16 3C7.16344 3 0 10.1634 0 19C0 27.8366 7.16344 35 16 35C24.8366 35 32 27.8366 32 19Z" fill="#F9EF06"/>
<path d="M28.5973 14.6934L16.9748 11.1158C16.3415 10.9208 15.6581 10.9208 15.0252 11.1158L3.40229 14.6934C2.42145 14.9953 2.42145 16.2948 3.40229 16.5967L5.42855 17.2204C4.98397 17.7711 4.71063 18.4427 4.68355 19.1783C4.28229 19.4088 3.9998 19.8245 3.9998 20.3209C3.9998 20.7709 4.23647 21.1496 4.57729 21.3917L3.51355 26.1876C3.42104 26.6047 3.73771 27.0004 4.16396 27.0004H6.50189C6.92856 27.0004 7.24523 26.6047 7.15272 26.1876L6.08897 21.3917C6.4298 21.1496 6.66648 20.7709 6.66648 20.3209C6.66648 19.8379 6.39689 19.4337 6.01397 19.1992C6.04564 18.5721 6.36564 18.0177 6.87605 17.6663L15.0248 20.1748C15.4024 20.2908 16.1265 20.4357 16.9744 20.1748L28.5973 16.5971C29.5787 16.2948 29.5787 14.9957 28.5973 14.6934ZM17.3661 21.4519C16.1773 21.8175 15.1644 21.6155 14.6332 21.4519L8.59065 19.592L7.99981 24.3285C7.99981 25.8044 11.5815 27.0004 15.9999 27.0004C20.4181 27.0004 23.9999 25.8044 23.9999 24.3285L23.4091 19.5916L17.3661 21.4519Z" fill="#4B00C6"/>
</svg>
