<svg xmlns="http://www.w3.org/2000/svg" width="90" height="36" fill="none" viewBox="0 0 90 36">
  <path fill="#F5F5F5" d="M.336 10.156c0-.43.093-.803.28-1.12.205-.336.495-.504.868-.504h11.844c.373 0 .653.168.84.504.205.317.308.69.308 1.12 0 .448-.103.84-.308 1.176-.205.317-.485.476-.84.476H9.24v16.044c0 .355-.187.635-.56.84-.355.205-.775.308-1.26.308-.504 0-.933-.103-1.288-.308-.355-.205-.532-.485-.532-.84V11.808H1.484c-.355 0-.635-.159-.84-.476-.205-.317-.308-.71-.308-1.176zm12.81 13.356v-2.38c0-1.53.597-2.847 1.792-3.948s2.641-1.652 4.34-1.652c1.587 0 2.94.504 4.06 1.512 1.139.99 1.708 2.24 1.708 3.752 0 .56-.075 1.027-.224 1.4-.13.355-.345.607-.644.756-.28.15-.541.243-.784.28a6.51 6.51 0 01-.952.056h-5.684v.42c0 .803.299 1.456.896 1.96.597.485 1.39.728 2.38.728.71 0 1.41-.177 2.1-.532.69-.355 1.139-.532 1.344-.532.392 0 .719.187.98.56.261.355.392.7.392 1.036 0 .523-.476 1.045-1.428 1.568-.933.504-2.1.756-3.5.756-1.997 0-3.63-.523-4.9-1.568-1.25-1.064-1.876-2.455-1.876-4.172zm3.612-2.352h4.088c.299 0 .504-.047.616-.14.13-.112.196-.317.196-.616 0-.653-.243-1.185-.728-1.596-.467-.41-1.045-.616-1.736-.616-.653 0-1.223.205-1.708.616-.485.392-.728.915-.728 1.568v.784zm9.698 5.684c0-.336.122-.681.364-1.036.243-.373.523-.56.84-.56.206 0 .458.103.756.308.318.205.729.42 1.232.644.505.205 1.102.308 1.793.308 1.362 0 2.043-.401 2.043-1.204 0-.448-.233-.803-.7-1.064-.447-.261-.998-.476-1.651-.644a28.234 28.234 0 01-1.932-.588 4.052 4.052 0 01-1.68-1.176c-.448-.56-.672-1.27-.672-2.128 0-1.139.4-2.119 1.203-2.94.803-.821 2.073-1.232 3.808-1.232 1.158 0 2.184.177 3.08.532.915.355 1.373.784 1.373 1.288 0 .317-.131.69-.393 1.12-.242.41-.55.616-.924.616-.149 0-.56-.13-1.232-.392-.653-.28-1.269-.42-1.848-.42-.634 0-1.12.13-1.456.392-.335.261-.504.55-.504.868 0 .317.169.579.505.784a4.14 4.14 0 001.232.476c.503.112 1.045.27 1.623.476.58.187 1.111.41 1.596.672.505.261.925.672 1.26 1.232.337.541.505 1.204.505 1.988 0 1.27-.458 2.268-1.373 2.996-.896.728-2.156 1.092-3.78 1.092-1.4 0-2.594-.243-3.584-.728-.989-.485-1.484-1.045-1.484-1.68zm12.322-2.38v-13.58c0-.317.187-.579.56-.784a2.35 2.35 0 011.232-.336c.486 0 .906.112 1.26.336.374.205.56.467.56.784V15.7h3.304c.28 0 .504.13.672.392.168.261.252.57.252.924 0 .355-.084.663-.252.924-.168.261-.392.392-.672.392H42.39v6.132c0 .541.112.924.336 1.148.243.224.654.336 1.232.336h1.092c.486 0 .859.15 1.12.448.28.299.42.653.42 1.064 0 .43-.14.793-.42 1.092-.261.299-.634.448-1.12.448h-1.092c-3.453 0-5.18-1.512-5.18-4.536zm9.54-13.496c0-.485.186-.896.56-1.232.391-.355.867-.532 1.427-.532.542 0 .999.177 1.372.532.392.336.588.747.588 1.232 0 .467-.196.877-.588 1.232-.373.355-.83.532-1.372.532-.56 0-1.036-.177-1.428-.532-.373-.355-.56-.765-.56-1.232zm.195 16.884V16.82c0-.336.168-.607.504-.812.336-.205.766-.308 1.288-.308.523 0 .952.103 1.288.308.355.205.532.476.532.812v11.032c0 .28-.186.541-.56.784-.354.243-.774.364-1.26.364-.504 0-.933-.112-1.288-.336-.336-.243-.504-.513-.504-.812zm6.399 0V16.82c0-.336.158-.607.476-.812.336-.205.774-.308 1.316-.308.448 0 .821.103 1.12.308.317.205.476.476.476.812v.84c.298-.597.774-1.101 1.428-1.512.672-.41 1.446-.616 2.324-.616 1.288 0 2.408.56 3.36 1.68.97 1.12 1.456 2.455 1.456 4.004v6.636c0 .355-.187.635-.56.84-.355.205-.775.308-1.26.308-.467 0-.887-.103-1.26-.308-.355-.205-.532-.485-.532-.84v-6.636c0-.653-.243-1.232-.728-1.736-.486-.523-1.055-.784-1.708-.784-.616 0-1.158.233-1.624.7-.448.467-.672 1.073-.672 1.82v6.636c0 .28-.187.541-.56.784-.355.243-.775.364-1.26.364-.504 0-.934-.112-1.288-.336-.336-.243-.504-.513-.504-.812zm13.233 5.796c0-1.008.308-1.512.924-1.512.877 0 1.736-.317 2.576-.952.858-.635 1.334-1.69 1.428-3.164l-4.816-10.304a1.326 1.326 0 01-.112-.476c0-.448.27-.85.812-1.204.56-.355 1.092-.532 1.596-.532.56 0 .905.205 1.036.616l3.36 8.372 2.716-8.372c.13-.41.448-.616.952-.616.485 0 1.017.187 1.596.56.578.355.868.765.868 1.232 0 .15-.028.29-.084.42L76.909 28.16l-.476 1.232a17.73 17.73 0 01-.504 1.316c-.094.243-.271.616-.532 1.12-.243.523-.467.896-.672 1.12a7.904 7.904 0 01-.812.868c-.355.355-.72.607-1.092.756a6.076 6.076 0 01-1.316.42 7.031 7.031 0 01-1.708.196c-.542 0-.952-.103-1.232-.308-.28-.205-.42-.616-.42-1.232z"/>
</svg>

