<svg xmlns="http://www.w3.org/2000/svg" width="98" height="36" fill="none" viewBox="0 0 98 36">
  <path fill="#F5F5F5" d="M7.336 29c-.467 0-.887-.093-1.26-.28-.373-.205-.56-.504-.56-.896V11.808H1.4c-.355 0-.635-.159-.84-.476-.205-.336-.308-.728-.308-1.176 0-.392.093-.756.28-1.092.187-.355.476-.532.868-.532h11.844c.392 0 .681.177.868.532.187.336.28.7.28 1.092 0 .448-.103.84-.308 1.176a.913.913 0 01-.84.476H9.156v16.016c0 .392-.196.69-.588.896-.373.187-.784.28-1.232.28zm12.395.252c-1.326 0-2.502-.233-3.528-.7-1.008-.485-1.802-1.157-2.38-2.016-.58-.877-.868-1.885-.868-3.024v-2.38c0-1.008.27-1.932.812-2.772a6.126 6.126 0 012.212-2.044c.933-.523 1.969-.784 3.108-.784 1.026 0 1.978.224 2.856.672a5.675 5.675 0 012.128 1.848c.54.784.812 1.699.812 2.744 0 .784-.131 1.353-.392 1.708a1.685 1.685 0 01-1.008.672 6.87 6.87 0 01-1.232.112h-5.684v.42c0 .803.298 1.456.896 1.96.616.485 1.409.728 2.38.728.616 0 1.129-.084 1.54-.252.41-.187.756-.364 1.036-.532.298-.187.588-.28.868-.28.429 0 .765.196 1.008.588.242.392.364.728.364 1.008 0 .317-.206.663-.616 1.036-.392.355-.962.663-1.708.924-.728.243-1.596.364-2.604.364zm-3.164-8.092h4.088c.298 0 .513-.047.644-.14.13-.112.196-.317.196-.616 0-.653-.252-1.185-.756-1.596a2.562 2.562 0 00-1.708-.616 2.75 2.75 0 00-1.736.588c-.486.392-.728.924-.728 1.596v.784zm14.821 8.092c-.952 0-1.81-.112-2.576-.336-.746-.243-1.344-.541-1.792-.896-.448-.373-.672-.765-.672-1.176 0-.299.103-.635.308-1.008.224-.392.523-.588.896-.588.262 0 .532.112.812.336.28.205.644.41 1.092.616.448.205 1.064.308 1.848.308.84 0 1.391-.13 1.652-.392.28-.261.42-.532.42-.812 0-.41-.168-.728-.504-.952-.317-.224-.728-.41-1.232-.56a47.578 47.578 0 00-1.624-.448 9.206 9.206 0 01-1.596-.644 3.554 3.554 0 01-1.232-1.12c-.317-.467-.476-1.092-.476-1.876 0-.672.16-1.325.476-1.96.318-.635.84-1.157 1.568-1.568.728-.43 1.718-.644 2.968-.644.766 0 1.484.084 2.156.252.691.15 1.251.364 1.68.644.43.28.644.588.644.924 0 .168-.056.392-.168.672a2.138 2.138 0 01-.448.728.957.957 0 01-.728.336c-.224 0-.476-.065-.756-.196a7.02 7.02 0 00-.98-.42c-.373-.13-.82-.196-1.344-.196-.69 0-1.185.14-1.484.42-.298.28-.448.56-.448.84 0 .336.16.597.476.784.318.187.728.345 1.232.476.523.13 1.064.28 1.624.448.58.168 1.12.401 1.624.7.504.28.915.681 1.232 1.204.336.504.504 1.167.504 1.988 0 1.27-.448 2.277-1.344 3.024-.877.728-2.146 1.092-3.808 1.092zM43.848 29c-1.68 0-2.968-.355-3.864-1.064-.877-.728-1.316-1.895-1.316-3.5V10.884c0-.336.196-.607.588-.812a2.567 2.567 0 012.436 0c.392.205.588.476.588.812V15.7h3.304c.299 0 .523.14.672.42.168.261.252.56.252.896 0 .336-.084.644-.252.924a.727.727 0 01-.672.392H42.28v6.104c0 .56.112.952.336 1.176.243.224.654.336 1.232.336h1.092c.523 0 .906.159 1.148.476.262.317.392.663.392 1.036 0 .392-.13.747-.392 1.064-.242.317-.625.476-1.148.476h-1.092zm6.293 0c-.522 0-.952-.121-1.288-.364-.336-.243-.504-.513-.504-.812V16.82c0-.336.168-.607.504-.812.336-.205.766-.308 1.288-.308.504 0 .934.103 1.288.308.355.205.532.476.532.812v11.004c0 .299-.177.57-.532.812-.354.243-.784.364-1.288.364zm0-16.268c-.56 0-1.036-.177-1.428-.532-.373-.355-.56-.765-.56-1.232 0-.467.187-.877.56-1.232.392-.355.868-.532 1.428-.532.542 0 .999.177 1.372.532.392.355.588.765.588 1.232 0 .467-.196.877-.588 1.232-.373.355-.83.532-1.372.532zM56.512 29c-.522 0-.952-.121-1.288-.364-.336-.243-.504-.513-.504-.812V16.82c0-.336.168-.607.504-.812.336-.205.766-.308 1.288-.308.43 0 .803.103 1.12.308.318.205.476.476.476.812v.84c.28-.541.738-1.027 1.372-1.456.654-.448 1.447-.672 2.38-.672.859 0 1.652.261 2.38.784.747.504 1.335 1.195 1.764 2.072.448.859.672 1.801.672 2.828v6.608c0 .392-.186.69-.56.896-.373.187-.793.28-1.26.28-.41 0-.812-.093-1.204-.28-.392-.205-.588-.504-.588-.896v-6.608c0-.635-.242-1.213-.728-1.736-.466-.523-1.036-.784-1.708-.784-.56 0-1.082.224-1.568.672-.485.448-.728 1.064-.728 1.848v6.608c0 .299-.186.57-.56.812-.354.243-.774.364-1.26.364zm14.657 0c-.523 0-.952-.121-1.288-.364-.336-.243-.504-.513-.504-.812V16.82c0-.336.168-.607.504-.812.336-.205.765-.308 1.288-.308.504 0 .933.103 1.288.308.354.205.532.476.532.812v11.004c0 .299-.178.57-.532.812-.355.243-.784.364-1.288.364zm0-16.268c-.56 0-1.036-.177-1.428-.532-.374-.355-.56-.765-.56-1.232 0-.467.186-.877.56-1.232.392-.355.868-.532 1.428-.532.54 0 .998.177 1.372.532.392.355.588.765.588 1.232 0 .467-.196.877-.588 1.232-.374.355-.831.532-1.372.532zM80.872 29c-1.68 0-2.968-.355-3.864-1.064-.878-.728-1.316-1.895-1.316-3.5V10.884c0-.336.196-.607.588-.812a2.566 2.566 0 012.436 0c.392.205.588.476.588.812V15.7h3.304c.298 0 .522.14.672.42.168.261.252.56.252.896 0 .336-.084.644-.252.924a.727.727 0 01-.672.392h-3.304v6.104c0 .56.112.952.336 1.176.242.224.653.336 1.232.336h1.092c.522 0 .905.159 1.148.476.261.317.392.663.392 1.036 0 .392-.131.747-.392 1.064-.243.317-.626.476-1.148.476h-1.092zm4.893 6.188c-.467 0-.859-.093-1.176-.28-.318-.168-.476-.588-.476-1.26 0-.392.065-.747.196-1.064a.758.758 0 01.728-.448c.298 0 .662-.065 1.092-.196a4.06 4.06 0 001.288-.616c.429-.299.793-.719 1.092-1.26.298-.523.476-1.204.532-2.044l-4.816-10.304a1.174 1.174 0 01-.112-.476c0-.317.13-.607.392-.868.28-.261.606-.467.98-.616.373-.168.718-.252 1.036-.252.224 0 .429.047.616.14a.763.763 0 01.42.476l3.36 8.372 2.688-8.372a.886.886 0 01.42-.476c.186-.093.373-.14.56-.14.28 0 .616.084 1.008.252.392.15.728.364 1.008.644.298.261.448.56.448.896a.935.935 0 01-.084.42L92.877 28.16c-.336.84-.663 1.67-.98 2.492a9.718 9.718 0 01-1.204 2.268 5.039 5.039 0 01-1.876 1.652c-.784.41-1.802.616-3.052.616z"/>
</svg>
