<svg xmlns="http://www.w3.org/2000/svg" viewBox="0 0 1440 320"><path fill="#4b00c6" fill-opacity="1" d="M0,128L21.8,154.7C43.6,181,87,235,131,224C174.5,213,218,139,262,133.3C305.5,128,349,192,393,202.7C436.4,213,480,171,524,160C567.3,149,611,171,655,170.7C698.2,171,742,149,785,149.3C829.1,149,873,171,916,202.7C960,235,1004,277,1047,282.7C1090.9,288,1135,256,1178,240C1221.8,224,1265,224,1309,213.3C1352.7,203,1396,181,1418,170.7L1440,160L1440,0L1418.2,0C1396.4,0,1353,0,1309,0C1265.5,0,1222,0,1178,0C1134.5,0,1091,0,1047,0C1003.6,0,960,0,916,0C872.7,0,829,0,785,0C741.8,0,698,0,655,0C610.9,0,567,0,524,0C480,0,436,0,393,0C349.1,0,305,0,262,0C218.2,0,175,0,131,0C87.3,0,44,0,22,0L0,0Z"></path></svg>