<svg xmlns="http://www.w3.org/2000/svg" width="240" height="240" fill="none" viewBox="0 0 240 240">
  <rect width="240" height="240" fill="#FF686B" rx="16"/>
  <g filter="url(#filter0_d)">
    <path fill="#fff" d="M79.763 65.64c.213-4.16.64-7.36 1.28-9.6 11.52 1.92 25.333 2.88 41.44 2.88 16.106 0 32.96-1.92 50.56-5.76-1.814 13.547-8.694 20.96-20.64 22.24-3.734.533-9.494 1.067-17.28 1.6-.214 3.093-1.974 16.64-5.28 40.64-3.307 23.893-4.96 40.373-4.96 49.44s.746 15.36 2.24 18.88c-9.067-2.347-15.254-5.44-18.56-9.28-3.307-3.947-4.96-8.8-4.96-14.56s1.333-18.24 4-37.44c2.773-19.307 4.426-34.827 4.96-46.56-8.64.427-17.12.64-25.44.64-4.907 0-7.36-4.373-7.36-13.12z"/>
  </g>
  <defs>
    <filter id="filter0_d" width="111.28" height="150.8" x="75.763" y="50.16" color-interpolation-filters="sRGB" filterUnits="userSpaceOnUse">
      <feFlood flood-opacity="0" result="BackgroundImageFix"/>
      <feColorMatrix in="SourceAlpha" values="0 0 0 0 0 0 0 0 0 0 0 0 0 0 0 0 0 0 127 0"/>
      <feOffset dx="5" dy="6"/>
      <feGaussianBlur stdDeviation="4.5"/>
      <feColorMatrix values="0 0 0 0 0 0 0 0 0 0 0 0 0 0 0 0 0 0 0.43 0"/>
      <feBlend in2="BackgroundImageFix" result="effect1_dropShadow"/>
      <feBlend in="SourceGraphic" in2="effect1_dropShadow" result="shape"/>
    </filter>
  </defs>
</svg>
